<svg width="56" height="56" viewBox="0 0 56 56" fill="none" xmlns="http://www.w3.org/2000/svg">
<path d="M35.8431 24.2878C35.8431 24.4309 35.7862 24.5681 35.6851 24.6693C35.5839 24.7705 35.4466 24.8274 35.3035 24.8274C35.1604 24.8274 35.0232 24.7705 34.922 24.6693C34.8208 24.5681 34.764 24.4309 34.764 24.2878L34.6217 21.5866C34.6182 21.515 34.629 21.4434 34.6533 21.376C34.6776 21.3085 34.715 21.2466 34.7634 21.1937C34.8118 21.1408 34.8702 21.098 34.9352 21.0677C35.0002 21.0375 35.0706 21.0205 35.1422 21.0176H35.1734C35.3127 21.0184 35.4462 21.073 35.5461 21.17C35.646 21.267 35.7046 21.3989 35.7095 21.538L35.8431 24.2878Z" fill="#FF6035"/>
<path d="M20.3359 41.5764C20.3374 41.5995 20.3374 41.6227 20.3359 41.6458V41.5764Z" fill="#181818"/>
<path d="M39.3166 14.327C39.2998 13.8155 39.1378 13.3194 38.8497 12.8964C38.5616 12.4734 38.1591 12.1411 37.6893 11.9381L34.4972 10.571L34.4521 10.5519L34.4312 10.5068C34.2553 10.1342 34.0469 9.77773 33.8084 9.44163C32.9184 8.19599 31.1888 6.71094 28.0018 6.71094C24.8148 6.71094 23.0852 8.19599 22.1952 9.44163C21.9425 9.79602 21.7241 10.1736 21.5429 10.5693L21.522 10.6161L21.4752 10.6352L18.3386 11.9433C17.8623 12.1429 17.4534 12.4752 17.1606 12.9005C16.8677 13.3259 16.7034 13.8265 16.687 14.3426L16.0138 36.5699C16.0112 36.6817 16.0431 36.7917 16.1052 36.8848C16.1672 36.978 16.2565 37.0497 16.3608 37.0903L19.3448 38.2839L19.4315 38.3186V38.4106L19.258 41.5784C19.2594 41.715 19.3123 41.8461 19.4063 41.9453C19.5002 42.0445 19.6282 42.1045 19.7645 42.1133C19.9008 42.1221 20.0354 42.079 20.1413 41.9927C20.2472 41.9063 20.3165 41.7831 20.3354 41.6478V41.5784V41.5646L20.6112 36.3096V36.235L20.6789 36.2003L23.2309 34.9252C23.34 34.8706 23.4274 34.7808 23.479 34.6703C23.5306 34.5598 23.5434 34.4351 23.5153 34.3164C23.4872 34.1977 23.4198 34.092 23.3241 34.0164C23.2284 33.9408 23.11 33.8997 22.988 33.8999C22.9041 33.9003 22.8215 33.9205 22.7469 33.9589L20.8767 34.894L20.6772 34.9929L20.6876 34.7691L21.3815 21.584C21.3857 21.5123 21.3755 21.4405 21.3514 21.3729C21.3274 21.3052 21.2899 21.2431 21.2414 21.1902C21.1928 21.1373 21.1342 21.0946 21.0688 21.0648C21.0035 21.035 20.9328 21.0187 20.8611 21.0167H20.8281C20.689 21.0175 20.5557 21.0722 20.456 21.1693C20.3564 21.2663 20.2982 21.3982 20.2938 21.5372L19.6571 33.6379L19.6466 33.8114L19.4732 33.7437L17.2733 32.8659L17.1901 32.8312V32.741L17.747 14.3739C17.7568 14.0653 17.8551 13.766 18.0301 13.5117C18.2051 13.2573 18.4494 13.0586 18.7341 12.9391L20.8246 12.0717L21.0276 11.9867L21.0051 12.2053C20.9927 12.3276 21.0221 12.4504 21.0886 12.5538C21.1551 12.6571 21.2547 12.7349 21.3711 12.7743L22.6844 13.2115L22.8458 13.2653L22.7521 13.4076L21.8083 14.8232C21.7432 14.9191 21.711 15.0336 21.7166 15.1494C21.7223 15.2652 21.7654 15.376 21.8395 15.4651L27.4414 22.0576V48.2195H19.9867V48.0825L20.1931 44.1374C20.1931 44.12 20.1931 44.1009 20.1931 44.0819C20.1918 43.9441 20.1379 43.812 20.0425 43.7125C19.9471 43.6131 19.8173 43.5538 19.6797 43.5467C19.5421 43.5396 19.4069 43.5853 19.3018 43.6744C19.1967 43.7636 19.1296 43.8894 19.114 44.0263C19.114 44.0454 19.114 44.0628 19.114 44.0819L18.8694 48.7296C18.8661 48.8028 18.8775 48.876 18.9028 48.9448C18.9281 49.0136 18.9669 49.0767 19.0169 49.1303C19.067 49.1844 19.1277 49.2276 19.1951 49.2574C19.2625 49.2873 19.3353 49.303 19.409 49.3038H36.5842C36.6576 49.3039 36.7303 49.2891 36.7977 49.2601C36.8652 49.2312 36.9261 49.1888 36.9766 49.1355C37.0271 49.0823 37.0662 49.0192 37.0915 48.9503C37.1168 48.8814 37.1278 48.8081 37.1238 48.7348L36.5825 38.4227V38.3308L36.6692 38.2961L39.6532 37.1025C39.756 37.0607 39.8436 36.9884 39.9041 36.8953C39.9646 36.8023 39.9951 36.6929 39.9915 36.582L39.3166 14.327ZM17.3497 34.0526L19.5183 34.92L19.605 34.9547V35.0484L19.5027 36.9949L19.4922 37.1684L19.3188 37.1007L17.1901 36.2593L17.1068 36.2246V36.1344L17.1762 34.1775V33.9901L17.3497 34.0526ZM31.4022 11.7438V8.64532L31.6051 8.78064C32.6481 9.50366 33.4126 10.5614 33.772 11.7785L33.8084 11.8999L33.6887 11.9398L32.1273 12.4603C32.0486 12.4869 31.977 12.5312 31.9181 12.5899C31.8592 12.6485 31.8145 12.7198 31.7876 12.7984C31.7606 12.877 31.752 12.9608 31.7625 13.0432C31.773 13.1257 31.8022 13.2046 31.848 13.274L33.0017 15.0088L33.0555 15.0904L32.9948 15.165L29.3515 19.5698L28.8779 20.1423L29.1295 19.4484L30.9702 14.3253C31.2613 13.496 31.4074 12.6227 31.4022 11.7438ZM25.6771 8.15435L25.7673 8.12659C27.2225 7.68945 28.7741 7.68945 30.2294 8.12659L30.3196 8.15609V9.57868H25.6771V8.15435ZM26.6503 19.6236L23.0071 15.1702L22.9464 15.0956L23.0002 15.0158L24.1556 13.2809C24.2014 13.2116 24.2306 13.1326 24.2411 13.0502C24.2516 12.9677 24.243 12.884 24.216 12.8054C24.1891 12.7268 24.1444 12.6554 24.0855 12.5968C24.0266 12.5382 23.955 12.4939 23.8763 12.4672L22.3149 11.9468L22.1934 11.9069L22.2299 11.7854C22.5892 10.5683 23.3538 9.5106 24.3967 8.78758L24.5997 8.65053V11.7438C24.5997 12.6203 24.7493 13.4905 25.0421 14.3166L26.8776 19.49L27.1274 20.1944L26.6503 19.6236ZM26.0587 13.9627C25.8052 13.2504 25.6761 12.4999 25.6771 11.7438V10.6543H30.3196V11.7438C30.3207 12.4963 30.1921 13.2434 29.9397 13.9523L28.1059 19.0459L27.9827 19.3929L27.8613 19.0459L26.0587 13.9627ZM36.3309 33.6397L35.984 27.0732C35.9881 26.9996 35.9772 26.926 35.952 26.8568C35.9267 26.7876 35.8876 26.7243 35.837 26.6708C35.7864 26.6172 35.7254 26.5746 35.6577 26.5454C35.5901 26.5163 35.5172 26.5012 35.4435 26.5012C35.3699 26.5012 35.297 26.5163 35.2293 26.5454C35.1617 26.5746 35.1007 26.6172 35.0501 26.6708C34.9995 26.7243 34.9604 26.7876 34.9351 26.8568C34.9098 26.926 34.899 26.9996 34.9031 27.0732L35.3091 34.776L35.3212 34.9981L35.12 34.8992L33.2498 33.9641C33.1752 33.9258 33.0925 33.9062 33.0086 33.9068C32.8866 33.9062 32.7679 33.947 32.672 34.0225C32.5761 34.098 32.5087 34.2038 32.4807 34.3226C32.4527 34.4414 32.4658 34.5662 32.5179 34.6766C32.57 34.787 32.658 34.8765 32.7675 34.9304L35.3178 36.2055L35.3854 36.2402V36.3148L36.0048 48.079V48.2161H28.5275V22.0472L34.1276 15.4668C34.2023 15.3774 34.2461 15.2663 34.2523 15.1499C34.2586 15.0336 34.227 14.9184 34.1623 14.8215L33.2168 13.4058L33.1231 13.2636L33.2845 13.2098L34.5978 12.7726C34.7179 12.7324 34.8202 12.6514 34.8868 12.5436C34.9534 12.4359 34.98 12.3081 34.9621 12.1827V12.1689L34.9239 11.9364L35.1425 12.0283L37.2504 12.9322C37.5312 13.0536 37.7717 13.2522 37.944 13.505C38.1163 13.7578 38.2133 14.0543 38.2237 14.36L38.7806 32.7497V32.8399L38.6956 32.8728L36.4957 33.7524L36.3223 33.8201L36.3309 33.6397ZM38.8135 36.2593L36.6883 37.1077L36.5148 37.1753L36.5062 37.0018L36.409 35.0449V34.9512L36.4957 34.9165L38.6626 34.0491L38.8361 33.9797V34.1671L38.8951 36.1309V36.2211L38.8135 36.2593Z" fill="#181818"/>
<path d="M20.3359 41.5762C20.3374 41.5993 20.3374 41.6225 20.3359 41.6456V41.5762Z" fill="#181818"/>
</svg>
