<svg width="56" height="56" viewBox="0 0 56 56" fill="none" xmlns="http://www.w3.org/2000/svg">
<path d="M39.2799 36.9323C39.2799 36.7943 39.225 36.6619 39.1274 36.5643C39.0298 36.4667 38.8974 36.4119 38.7594 36.4119C38.6214 36.4119 38.489 36.4667 38.3914 36.5643C38.2938 36.6619 38.239 36.7943 38.239 36.9323C38.3002 39.6272 38.3234 42.3226 38.3083 45.0186C38.3068 45.1572 38.257 45.291 38.1673 45.3968C38.0777 45.5026 37.9539 45.5738 37.8174 45.598C37.783 45.6041 37.7482 45.6076 37.7133 45.6085H33.9122C33.774 45.5994 33.6434 45.5425 33.5427 45.4475C33.442 45.3525 33.3775 45.2254 33.3605 45.088L31.8598 33.277C31.6398 31.5393 31.313 29.8167 30.8813 28.1192V28.107L28.5393 19.7796C28.5084 19.6712 28.4432 19.5756 28.3534 19.5074C28.2636 19.4392 28.1541 19.402 28.0414 19.4014C27.927 19.3997 27.8153 19.4355 27.7234 19.5036C27.6316 19.5716 27.5647 19.668 27.533 19.7779L25.1563 27.8208C25.1563 27.8208 25.1563 27.8208 25.1563 27.8347C24.6621 29.6907 24.2935 31.5779 24.0529 33.4834L22.5834 45.0897C22.568 45.2245 22.5067 45.3498 22.4097 45.4446C22.3126 45.5394 22.1859 45.5979 22.0508 45.6102H21.9936H18.2827C18.1259 45.6097 17.9756 45.5476 17.8642 45.4372C17.7529 45.3269 17.6895 45.1771 17.6876 45.0203V44.9908C17.7156 34.9806 18.2529 24.9782 19.2976 15.0226H19.8822C20.7898 15.0217 21.6599 14.6608 22.3016 14.0191C22.9433 13.3773 23.3042 12.5072 23.3052 11.5997V10.4946H23.6348C23.7728 10.4946 23.9052 10.4398 24.0028 10.3422C24.1004 10.2446 24.1552 10.1122 24.1552 9.97414C24.1552 9.8361 24.1004 9.70372 24.0028 9.60611C23.9052 9.50851 23.7728 9.45367 23.6348 9.45367H19.8423V7.61124H36.4538V9.45367H25.7461C25.6081 9.45367 25.4757 9.50851 25.3781 9.60611C25.2805 9.70372 25.2257 9.8361 25.2257 9.97414C25.2257 10.1122 25.2805 10.2446 25.3781 10.3422C25.4757 10.4398 25.6081 10.4946 25.7461 10.4946H27.5435V16.8286C27.5435 16.9667 27.5983 17.099 27.6959 17.1966C27.7935 17.2943 27.9259 17.3491 28.0639 17.3491C28.6796 17.3482 29.2697 17.1031 29.7049 16.6676C30.1401 16.2321 30.3847 15.6417 30.3852 15.0261V10.4946H32.9302V11.5962C32.9312 12.5038 33.2921 13.3739 33.9338 14.0156C34.5755 14.6573 35.4456 15.0182 36.3531 15.0191H36.9395V15.0747C37.5745 21.6464 37.988 28.2325 38.18 34.8331C38.1781 34.9712 38.2312 35.1043 38.3275 35.2032C38.4238 35.3021 38.5555 35.3587 38.6935 35.3605C38.8315 35.3624 38.9646 35.3093 39.0635 35.213C39.1625 35.1167 39.219 34.9851 39.2209 34.847C39.2217 34.8424 39.2217 34.8377 39.2209 34.8331V34.8019C39.2217 34.795 39.2217 34.788 39.2209 34.7811C39.0277 28.1678 38.6131 21.5654 37.977 14.974L37.4912 9.94291V7.09077C37.4912 6.95274 37.4364 6.82036 37.3388 6.72275C37.2412 6.62515 37.1088 6.57031 36.9708 6.57031H19.3219C19.1838 6.57031 19.0515 6.62515 18.9539 6.72275C18.8563 6.82036 18.8014 6.95274 18.8014 7.09077V9.94638L18.3122 14.4432C17.2323 24.5857 16.6769 34.7772 16.6484 44.977V45.0099C16.6477 45.3144 16.732 45.6131 16.8921 45.8721C17.0521 46.1312 17.2814 46.3403 17.554 46.4759V48.9134C17.554 49.0514 17.6089 49.1838 17.7065 49.2814C17.8041 49.379 17.9365 49.4338 18.0745 49.4338H22.1029C22.2409 49.4338 22.3733 49.379 22.4709 49.2814C22.5685 49.1838 22.6233 49.0514 22.6233 48.9134V46.521C22.8899 46.4118 23.1225 46.2335 23.2972 46.0045C23.472 45.7755 23.5825 45.504 23.6174 45.2181L25.0886 33.6118C25.3225 31.7541 25.6819 29.9144 26.1642 28.1053L28.0205 21.7938L29.8717 28.3864C30.2936 30.0421 30.6128 31.7224 30.8276 33.4175L32.3282 45.2285C32.3657 45.5208 32.4814 45.7976 32.6631 46.0297C32.8448 46.2617 33.0857 46.4405 33.3605 46.547V48.9221C33.3605 49.0601 33.4153 49.1925 33.5129 49.2901C33.6105 49.3877 33.7429 49.4425 33.8809 49.4425H37.9093C38.0474 49.4425 38.1797 49.3877 38.2773 49.2901C38.375 49.1925 38.4298 49.0601 38.4298 48.9221V46.4932C38.704 46.3597 38.9354 46.1521 39.0978 45.894C39.2603 45.6359 39.3474 45.3375 39.3493 45.0325C39.3631 42.3284 39.34 39.6283 39.2799 36.9323ZM29.3443 15.033C29.3441 15.2807 29.2722 15.5231 29.1374 15.7309C29.0026 15.9386 28.8105 16.103 28.5844 16.2041V10.4946H29.3443V15.033ZM36.8389 13.9782H36.3531C35.7217 13.9773 35.1163 13.7261 34.6698 13.2795C34.2233 12.833 33.9721 12.2277 33.9712 11.5962V10.4946H36.5006L36.8389 13.9782ZM19.7886 10.4946H22.266V11.5962C22.265 12.2277 22.0138 12.833 21.5673 13.2795C21.1208 13.7261 20.5154 13.9773 19.884 13.9782H19.4104L19.7886 10.4946ZM21.5807 48.3912H18.5932V46.6459H21.5807V48.3912ZM37.3889 48.3912H34.4014V46.6459H37.3889V48.3912Z" fill="#181818"/>
<path d="M33.059 29.4924C33.0323 29.3569 32.9529 29.2375 32.8382 29.1606C32.7235 29.0836 32.583 29.0554 32.4475 29.0821C32.312 29.1088 32.1926 29.1882 32.1157 29.3029C32.0387 29.4176 32.0105 29.5581 32.0372 29.6936C32.0362 29.6982 32.0362 29.7029 32.0372 29.7075C32.2783 30.8508 32.4761 32.0218 32.6235 33.1911C32.6439 33.3255 32.7161 33.4466 32.8246 33.5285C32.933 33.6104 33.0692 33.6466 33.2041 33.6293C33.3389 33.6121 33.4616 33.5428 33.546 33.4363C33.6304 33.3298 33.6698 33.1945 33.6558 33.0593C33.5083 31.8605 33.3106 30.66 33.059 29.4924Z" fill="#FF6035"/>
<path d="M32.3428 28.6579C32.4093 28.6415 32.4719 28.6121 32.5269 28.5714C32.582 28.5308 32.6285 28.4797 32.6638 28.421C32.6991 28.3623 32.7225 28.2973 32.7326 28.2296C32.7427 28.1619 32.7394 28.0928 32.7228 28.0264C32.695 27.9137 32.6673 27.8009 32.6378 27.6795C32.6033 27.5458 32.5171 27.4313 32.3982 27.3612C32.2792 27.2911 32.1373 27.2711 32.0037 27.3056C31.87 27.3401 31.7555 27.4263 31.6854 27.5452C31.6153 27.6641 31.5953 27.806 31.6298 27.9397L31.7131 28.2693C31.7463 28.4031 31.8313 28.5183 31.9494 28.5896C32.0674 28.6608 32.209 28.6823 32.3428 28.6492V28.6579Z" fill="#FF6035"/>
</svg>
