<svg width="56" height="56" viewBox="0 0 56 56" fill="none" xmlns="http://www.w3.org/2000/svg">
<path d="M47.2907 24.3874C46.9545 21.8031 46.3914 19.2534 45.6079 16.7678C44.8981 14.5215 43.515 12.5477 41.646 11.1137C39.7769 9.67974 37.5122 8.85492 35.1588 8.75098H20.8409C18.4875 8.85477 16.223 9.67957 14.3542 11.1136C12.4854 12.5476 11.1027 14.5215 10.3934 16.7678C9.60916 19.2532 9.04603 21.8029 8.71062 24.3874L6.43793 41.92C6.4216 42.0458 6.45171 42.1731 6.52263 42.2782C6.59354 42.3833 6.70038 42.4589 6.82308 42.4908L6.58193 45.3846C6.57622 45.4527 6.58399 45.5213 6.6048 45.5864C6.6256 45.6515 6.65902 45.7119 6.70317 45.7641C6.74731 45.8163 6.8013 45.8593 6.86206 45.8906C6.92282 45.9219 6.98916 45.941 7.05728 45.9467H7.0729L12.2775 46.2173H12.3035C12.4265 46.2194 12.5463 46.1778 12.6416 46.1C12.7368 46.0222 12.8015 45.9132 12.824 45.7923L13.3583 42.8794H13.4087C13.5194 42.8793 13.6272 42.844 13.7164 42.7785C13.8056 42.713 13.8716 42.6207 13.9048 42.5151L15.343 37.9437L15.3101 42.895C15.3101 43.0331 15.3649 43.1654 15.4625 43.2631C15.5601 43.3607 15.6925 43.4155 15.8305 43.4155H16.351V46.7239C16.351 46.8619 16.4058 46.9943 16.5034 47.0919C16.601 47.1895 16.7334 47.2444 16.8715 47.2444H39.1438C39.2818 47.2444 39.4142 47.1895 39.5118 47.0919C39.6094 46.9943 39.6642 46.8619 39.6642 46.7239V43.4207H40.1847C40.3227 43.4207 40.4551 43.3659 40.5527 43.2683C40.6503 43.1707 40.7052 43.0383 40.7052 42.9002L40.6705 37.9489L42.1104 42.5203C42.1436 42.6259 42.2096 42.7182 42.2989 42.7837C42.3881 42.8492 42.4959 42.8846 42.6066 42.8846H42.6569L43.1982 45.8009C43.2205 45.9204 43.2838 46.0283 43.3773 46.1059C43.4708 46.1835 43.5885 46.226 43.71 46.226H43.7377L48.9233 45.9467C49.0611 45.9395 49.1904 45.8779 49.2827 45.7754C49.3751 45.673 49.4231 45.538 49.416 45.4002V45.3828L49.1731 42.4908C49.2961 42.4593 49.4033 42.3838 49.4746 42.2787C49.5459 42.1735 49.5762 42.046 49.56 41.92L47.2907 24.3874ZM28.162 9.78149H32.4715C32.364 10.8589 31.8986 11.8692 31.1495 12.651C30.768 13.0646 30.3087 13.3991 29.7979 13.6352C29.2871 13.8713 28.7347 14.0044 28.1724 14.027C27.6102 14.0495 27.049 13.961 26.5209 13.7666C25.9928 13.5722 25.5082 13.2756 25.0948 12.8939C25.0098 12.8175 24.9213 12.736 24.8502 12.651C24.1021 11.8685 23.6368 10.8586 23.5282 9.78149H28.162ZM22.4838 9.78149C22.5953 11.1276 23.1655 12.3947 24.099 13.3709C24.5973 13.9082 25.2013 14.3368 25.873 14.6299C26.5446 14.923 27.2696 15.0743 28.0024 15.0743C28.7353 15.0743 29.4602 14.923 30.1319 14.6299C30.8036 14.3368 31.4075 13.9082 31.9059 13.3709C32.841 12.3956 33.4119 11.1281 33.5228 9.78149H34.6019C34.3469 13.3362 31.4791 16.1485 28.0094 16.1485C24.5396 16.1485 21.6701 13.338 21.4168 9.78149H22.4838ZM11.8698 45.1538L7.66275 44.9335L7.86227 42.5585L12.307 42.817L11.8698 45.1538ZM44.1385 45.1538L43.7013 42.8187L48.1443 42.5602L48.3369 44.9335L44.1385 45.1538ZM42.9709 41.8107L40.6497 34.4358H40.6358L40.582 26.4814C40.5698 24.2122 40.8197 22.2743 41.4494 19.7882C41.483 19.6544 41.462 19.5126 41.3911 19.3942C41.3202 19.2757 41.2051 19.1903 41.0712 19.1568C40.9373 19.1232 40.7956 19.1441 40.6771 19.2151C40.5587 19.286 40.4733 19.4011 40.4397 19.535C39.7892 22.1095 39.5307 24.1237 39.5428 26.4883L39.6521 42.3694H35.8944C35.7563 42.3694 35.6239 42.4242 35.5263 42.5218C35.4287 42.6194 35.3739 42.7518 35.3739 42.8898C35.3739 43.0279 35.4287 43.1602 35.5263 43.2578C35.6239 43.3555 35.7563 43.4103 35.8944 43.4103H38.6146V46.2173H17.385V43.4207H33.2331C33.3711 43.4207 33.5035 43.3659 33.6011 43.2683C33.6987 43.1707 33.7535 43.0383 33.7535 42.9002C33.7535 42.7622 33.6987 42.6298 33.6011 42.5322C33.5035 42.4346 33.3711 42.3798 33.2331 42.3798H16.351L16.4586 26.497C16.4724 24.1341 16.2122 22.1199 15.5634 19.5436C15.5466 19.4773 15.517 19.415 15.4761 19.3601C15.4353 19.3053 15.3841 19.259 15.3253 19.224C15.2666 19.189 15.2016 19.1658 15.1339 19.1559C15.0663 19.146 14.9973 19.1495 14.931 19.1663C14.8647 19.183 14.8024 19.2127 14.7475 19.2535C14.6927 19.2944 14.6464 19.3456 14.6114 19.4043C14.5406 19.5229 14.5199 19.6648 14.5537 19.7987C15.18 22.283 15.4315 24.2226 15.4211 26.4901L15.3673 34.4462H15.3552L13.0305 41.8107L7.54131 41.4933L9.74287 24.5158C10.0708 21.992 10.6206 19.5021 11.3858 17.0749C12.0034 15.1171 13.1845 13.3849 14.7813 12.0947C16.3782 10.8046 18.3199 10.0139 20.3638 9.82139C20.6431 13.9278 23.9619 17.1825 27.9972 17.1825C32.0325 17.1825 35.3548 13.9296 35.6307 9.82139C37.6744 10.0141 39.6161 10.8049 41.2129 12.095C42.8097 13.3851 43.9908 15.1172 44.6086 17.0749C45.3739 19.5021 45.9236 21.992 46.2516 24.5158L48.4514 41.4933L42.9709 41.8107Z" fill="#181818"/>
<path d="M20.0545 12.4515C20.0042 12.3179 19.9522 12.1722 19.9036 12.0212C19.8615 11.8894 19.7687 11.7797 19.6458 11.7163C19.5228 11.6528 19.3796 11.6408 19.2478 11.6829C19.116 11.725 19.0063 11.8178 18.9428 11.9408C18.8794 12.0637 18.8674 12.2069 18.9095 12.3387C18.9633 12.5122 19.0205 12.6718 19.083 12.8227C19.1322 12.9518 19.2307 13.056 19.3568 13.1125C19.4829 13.1689 19.6262 13.173 19.7553 13.1237C19.8843 13.0745 19.9885 12.976 20.045 12.85C20.1014 12.7239 20.1055 12.5805 20.0563 12.4515H20.0545Z" fill="#FF6035"/>
<path d="M23.0481 16.4153C22.0547 15.6791 21.2272 14.7422 20.6193 13.6655C20.5505 13.5487 20.4389 13.4634 20.3081 13.4276C20.1774 13.3919 20.0378 13.4085 19.9192 13.4741C19.8006 13.5396 19.7122 13.6488 19.6728 13.7785C19.6335 13.9083 19.6463 14.0482 19.7085 14.1686C20.3871 15.3724 21.3109 16.4203 22.4201 17.2445C22.5312 17.3267 22.6704 17.3613 22.8071 17.3408C22.9437 17.3203 23.0666 17.2464 23.1487 17.1352C23.2309 17.0241 23.2655 16.8849 23.245 16.7483C23.2245 16.6116 23.1506 16.4887 23.0395 16.4066L23.0481 16.4153Z" fill="#FF6035"/>
</svg>
