<svg width="56" height="56" viewBox="0 0 56 56" fill="none" xmlns="http://www.w3.org/2000/svg">
<path d="M45.1395 8.36924C45.2723 8.45608 45.3788 8.57769 45.4473 8.72085C45.5159 8.86401 45.5438 9.02323 45.5281 9.18116C45.5211 20.2844 45.5211 31.3876 45.5281 42.4907C45.5349 42.6069 45.5273 42.7234 45.5055 42.8377C45.4833 42.9656 45.4151 43.0809 45.3139 43.162C45.2126 43.2432 45.0852 43.2845 44.9556 43.2784C44.8256 43.2873 44.697 43.2472 44.5952 43.1659C44.4934 43.0847 44.4257 42.9682 44.4056 42.8395C44.3795 42.6889 44.3708 42.5358 44.3796 42.3832V26.2888C43.9684 26.7381 43.6111 27.1094 43.2849 27.5032C43.2103 27.5916 43.2311 27.7686 43.2311 27.9057C43.2311 30.5392 43.2311 33.1722 43.2311 35.8045C43.2311 36.4985 43.0576 36.672 42.3724 36.672H24.6506C23.9376 36.672 23.7676 36.4985 23.7676 35.7924C23.7676 33.1901 23.7676 30.5791 23.7676 27.9716C23.7782 27.8335 23.7577 27.6947 23.7076 27.5656C23.6574 27.4365 23.5789 27.3203 23.4778 27.2256C23.2037 26.9636 22.9574 26.6687 22.6104 26.2905V26.7832C22.6104 29.7741 22.6104 32.7645 22.6104 35.7542C22.6104 36.5332 22.4733 36.672 21.6996 36.672H13.6151C12.9524 36.672 12.7789 36.4985 12.7771 35.8306V11.5146C12.7771 10.8466 12.9506 10.6697 13.6116 10.6697H21.7777C22.4473 10.6697 22.6156 10.8432 22.6156 11.5076C22.6156 15.2399 22.6156 18.9716 22.6156 22.7028V23.2475C23.0216 22.8693 23.3633 22.5831 23.6565 22.2586C23.7378 22.1193 23.7719 21.9574 23.7537 21.7972C23.7537 18.4107 23.7537 15.0236 23.7537 11.636C23.7537 10.8119 23.8907 10.6732 24.7079 10.6732H37.4748C38.0924 10.6732 38.3804 10.8605 38.3735 11.2578C38.3665 11.6551 38.0872 11.8234 37.4575 11.8234H24.9455V17.8816H28.4777C28.4071 17.6115 28.3966 17.3292 28.447 17.0546C28.4974 16.78 28.6073 16.5199 28.7692 16.2924C28.7821 16.2476 28.7847 16.2005 28.7769 16.1546C28.7691 16.1086 28.7511 16.065 28.7241 16.027C27.9712 15.0051 28.62 13.3067 30.2629 13.3171C31.8347 13.3275 33.4065 13.3171 34.9783 13.3171C35.5664 13.3171 36.1563 13.2963 36.7409 13.3466C37.0319 13.3689 37.3122 13.4662 37.5545 13.6289C37.7968 13.7915 37.9929 14.0142 38.1237 14.2751C38.2545 14.536 38.3155 14.8263 38.3009 15.1177C38.2863 15.4092 38.1966 15.692 38.0404 15.9385C37.9804 16.0086 37.9474 16.0978 37.9474 16.1901C37.9474 16.2823 37.9804 16.3715 38.0404 16.4416C38.337 16.8719 38.3683 17.3646 38.2347 17.8937H42.0514V11.8216C41.5309 11.8216 41.0105 11.8216 40.49 11.8216C39.9696 11.8216 39.7006 11.61 39.7076 11.237C39.7145 10.864 39.9869 10.6732 40.5091 10.6714H42.4175C43.0316 10.6714 43.219 10.8588 43.219 11.4712C43.219 14.8837 43.219 18.2962 43.219 21.707C43.2064 21.8565 43.2316 22.0068 43.2922 22.1441C43.3529 22.2815 43.447 22.4014 43.5659 22.4929C43.8244 22.6993 44.0534 22.9405 44.3432 23.2111V9.54202H11.6234V9.94104C11.6234 10.982 11.6234 12.0368 11.6234 13.0846C11.6234 13.5478 11.4222 13.8011 11.0666 13.8115C10.7109 13.822 10.4767 13.5617 10.475 13.0846C10.475 11.78 10.475 10.4823 10.475 9.17423C10.4593 9.01629 10.4872 8.85707 10.5557 8.71391C10.6242 8.57075 10.7307 8.44914 10.8636 8.3623L45.1395 8.36924ZM13.9447 35.494H21.4394V11.8407H13.9447V35.494ZM38.2329 24.7118C36.9769 23.5442 35.7625 22.4131 34.5429 21.2854C34.4754 21.2303 34.3935 21.196 34.3069 21.1865C33.6407 21.1015 33.547 21.1622 33.266 21.7538C32.6744 22.9856 31.6578 23.4505 30.3323 23.4123C29.0069 23.3742 28.0145 22.6924 27.5843 21.4328C27.5663 21.3474 27.5249 21.2687 27.4646 21.2056C27.3102 21.0911 26.5035 21.216 26.3439 21.3635L24.0972 23.4453L22.7266 24.71L24.4789 26.6184C24.7894 26.3321 25.0843 26.0493 25.3897 25.7804C25.5048 25.6677 25.65 25.5906 25.8078 25.5583C25.9657 25.526 26.1295 25.5399 26.2797 25.5983C26.4384 25.6514 26.5778 25.7502 26.6806 25.8823C26.7834 26.0144 26.8449 26.1739 26.8574 26.3408C26.8707 26.4681 26.8753 26.5962 26.8713 26.7242C26.8713 28.3342 26.8713 29.9441 26.8713 31.5541V31.9705H34.0849V31.5298C34.0849 29.8817 34.0849 28.2336 34.0849 26.5837C34.0849 26.1534 34.2011 25.7995 34.6244 25.6174C35.0477 25.4352 35.3895 25.6 35.6966 25.8949C35.9429 26.1326 36.1979 26.3616 36.472 26.6166L38.2329 24.7118ZM42.074 35.5009V35.0551C42.074 32.8188 42.041 30.5826 42.093 28.3481C42.1104 27.6871 41.7062 27.4633 41.2776 27.066V27.5847C41.2776 29.0686 41.2776 30.5508 41.2776 32.0312C41.2776 32.8327 40.9532 33.1537 40.1639 33.1537H26.8209C26.0472 33.1537 25.7314 32.8344 25.7297 32.0572C25.7297 30.5357 25.7297 29.016 25.7297 27.4945C25.7297 27.3765 25.7176 27.2586 25.7106 27.1163C25.152 27.4771 24.8779 27.8762 24.897 28.5684C24.956 30.7266 24.9195 32.8882 24.9195 35.0464V35.5096L42.074 35.5009ZM35.2698 27.1198V31.9774H37.2389V27.5032C36.911 27.8415 36.5449 27.9837 36.1979 27.8085C35.851 27.6333 35.589 27.3644 35.268 27.1198H35.2698ZM33.3475 15.6141H36.2587C36.8676 15.6141 37.1643 15.4146 37.1521 15.0225C37.14 14.6304 36.8572 14.4656 36.2639 14.4639H30.4416C30.289 14.4639 30.0946 14.4309 29.994 14.5107C29.8205 14.6443 29.6054 14.8577 29.6037 15.0312C29.6019 15.2046 29.8188 15.4232 29.9888 15.5516C30.0877 15.6297 30.2838 15.5985 30.4364 15.5985C31.401 15.6141 32.3777 15.6141 33.3475 15.6141ZM33.3285 17.9145C34.3382 17.9145 35.3461 17.9145 36.3558 17.9145C36.8763 17.9145 37.1486 17.7081 37.1521 17.3437C37.1556 16.9794 36.8763 16.7747 36.361 16.766H30.4225C30.2699 16.766 30.0756 16.7365 29.9767 16.8163C29.8032 16.9569 29.6106 17.1633 29.6019 17.3576C29.5933 17.5519 29.8067 17.7341 29.9697 17.8607C30.0721 17.9405 30.2647 17.9111 30.4173 17.9128C31.3889 17.918 32.3587 17.9163 33.3285 17.9163V17.9145ZM36.2587 21.183L36.1806 21.3045C36.2616 21.3424 36.3384 21.389 36.4096 21.4433C37.3013 22.2656 38.1913 23.0908 39.0796 23.9189C39.6122 24.4168 39.6313 24.8766 39.1542 25.4179C39.0414 25.548 38.9234 25.6746 38.8072 25.8134L39.6746 26.6184L41.4268 24.71C40.176 23.5511 38.9529 22.4131 37.7229 21.2802C37.6559 21.2244 37.5723 21.1927 37.4852 21.19C37.0636 21.1778 36.6559 21.183 36.2587 21.183ZM38.4498 27.0816V31.9739H40.1101V27.7755C39.3207 28.1191 38.9529 27.4858 38.4411 27.0747L38.4498 27.0816ZM42.5042 26.6184L44.2547 24.71L43.8921 24.363C42.8998 23.4436 41.8779 22.5536 40.9307 21.5872C40.4588 21.1067 39.9643 21.1605 39.3901 21.2507C39.47 21.3503 39.5621 21.4395 39.6642 21.5161C40.5317 22.3211 41.4095 23.1261 42.2665 23.9449C42.7766 24.4255 42.787 24.887 42.3186 25.4126C42.1451 25.5983 41.9837 25.7822 41.8085 25.9747L42.5042 26.6184ZM24.9455 19.0925V21.039C25.0023 21.0104 25.0554 20.9748 25.1034 20.9332C25.7297 20.1161 26.5763 19.9079 27.5513 20.0293C27.7299 20.0398 27.9089 20.0398 28.0874 20.0293H29.883V19.089L24.9455 19.0925ZM42.0583 19.0925H37.1851V20.0259C38.082 20.0259 38.9633 20.0658 39.8377 20.0137C40.5993 19.9669 41.2256 20.1542 41.7027 20.7528C41.8138 20.8678 41.9326 20.975 42.0583 21.0737V19.0925ZM28.7397 21.1882C29.1127 22.0557 29.7893 22.3662 30.9309 22.2396C31.5259 22.1736 32.0863 21.7018 32.1748 21.1882H28.7397ZM31.0974 19.0856V19.9981H32.9971V19.0856H31.0974ZM34.1959 19.9981H35.995V19.0925H34.1959V19.9981Z" fill="#181818"/>
<path d="M10.8597 47.633C10.7268 47.5461 10.6203 47.4245 10.5518 47.2814C10.4833 47.1382 10.4554 46.979 10.4711 46.8211C10.478 36.5413 10.4803 26.2547 10.478 15.9611C10.4725 15.8452 10.4777 15.7291 10.4936 15.6141C10.5162 15.4813 10.5855 15.3609 10.689 15.2747C10.7925 15.1884 10.9234 15.1419 11.0582 15.1436C11.1929 15.1453 11.3226 15.195 11.4239 15.2838C11.5252 15.3726 11.5915 15.4947 11.6109 15.628C11.6276 15.783 11.6316 15.9391 11.623 16.0947V46.455H44.3722C44.3722 46.0872 44.3722 45.7316 44.3722 45.3776C44.3722 44.8572 44.57 44.5813 44.9361 44.5727C45.3021 44.564 45.5207 44.8537 45.5224 45.3967C45.5224 45.8686 45.5068 46.3422 45.5224 46.8141C45.5414 46.9724 45.5149 47.1328 45.4461 47.2765C45.3773 47.4203 45.269 47.5415 45.1338 47.626L10.8597 47.633Z" fill="#FF6035"/>
<path d="M20.0987 45.1068H13.6207C12.9545 45.1068 12.7793 44.9333 12.7793 44.2706C12.7793 42.6514 12.7793 41.0281 12.7793 39.4008C12.7793 38.7676 12.9528 38.5889 13.6068 38.5889C17.9371 38.5889 22.2685 38.5889 26.601 38.5889C27.2429 38.5889 27.4234 38.7624 27.4251 39.406C27.4251 41.0414 27.4251 42.6768 27.4251 44.3122C27.4251 44.9194 27.2343 45.1051 26.6167 45.1068H20.0987ZM26.2575 39.7651H13.959V43.9288H26.2575V39.7651Z" fill="#181818"/>
<path d="M35.8954 45.1071H29.4174C28.7512 45.1071 28.5742 44.9336 28.5742 44.2709V39.3959C28.5742 38.7627 28.7581 38.584 29.4018 38.584C33.7343 38.584 38.0663 38.584 42.3977 38.584C43.0396 38.584 43.22 38.7575 43.22 39.4011C43.22 41.0365 43.22 42.6719 43.22 44.3073C43.22 44.9145 43.0309 45.1002 42.4133 45.1019L35.8954 45.1071ZM29.7435 43.9309H42.0403V39.7533H29.7435V43.9309Z" fill="#181818"/>
<path d="M20.0126 42.4035C19.8602 42.4174 19.7069 42.4174 19.5546 42.4035C19.4182 42.3821 19.2945 42.3114 19.2067 42.2049C19.119 42.0984 19.0734 41.9634 19.0785 41.8255C19.0836 41.6876 19.1392 41.5563 19.2346 41.4566C19.33 41.3569 19.4587 41.2957 19.5962 41.2845C19.8755 41.2593 20.1566 41.2593 20.4359 41.2845C20.5793 41.2868 20.7161 41.3453 20.8167 41.4476C20.9173 41.5498 20.9737 41.6875 20.9737 41.831C20.9789 41.9801 20.9249 42.1253 20.8235 42.2348C20.7221 42.3443 20.5815 42.4093 20.4324 42.4156C20.2926 42.4234 20.1524 42.4234 20.0126 42.4156V42.4035Z" fill="#181818"/>
<path d="M35.8872 42.404C35.7348 42.4179 35.5815 42.4179 35.4292 42.404C35.293 42.39 35.1674 42.3242 35.0783 42.2203C34.9892 42.1163 34.9434 41.9821 34.9504 41.8454C34.9413 41.7081 34.9869 41.5729 35.0773 41.4692C35.1677 41.3655 35.2954 41.3018 35.4326 41.292C35.7246 41.2634 36.0186 41.2634 36.3105 41.292C36.4538 41.2947 36.5903 41.3534 36.6908 41.4556C36.7913 41.5577 36.8479 41.6952 36.8483 41.8385C36.8535 41.9876 36.7995 42.1328 36.6981 42.2423C36.5967 42.3518 36.4561 42.4168 36.307 42.4231C36.1672 42.4309 36.027 42.4309 35.8872 42.4231V42.404Z" fill="#181818"/>
</svg>
