<svg width="21" height="21" viewBox="0 0 21 21" fill="none" xmlns="http://www.w3.org/2000/svg">
<path fill-rule="evenodd" clip-rule="evenodd" d="M6.65895 15.9111C8.44552 17.2963 10.6929 17.9492 12.9439 17.7368C15.1949 17.5245 17.2805 16.4629 18.7763 14.768C20.272 13.0731 21.0657 10.8723 20.9957 8.61328C20.9258 6.35425 19.9975 4.2067 18.3998 2.60752C16.801 1.00695 14.6517 0.0760288 12.3901 0.00445431C10.1284 -0.0671202 7.92457 0.726043 6.22763 2.22231C4.53069 3.71858 3.46838 5.80534 3.25717 8.05734C3.04597 10.3093 3.70176 12.5571 5.09091 14.3426L5.0409 14.3904L0.325671 19.1026C0.222421 19.2058 0.140515 19.3283 0.0846377 19.4632C0.0287581 19.598 -8.62975e-07 19.7426 -8.69355e-07 19.8885C-8.75735e-07 20.0345 0.0287581 20.179 0.0846377 20.3139C0.140515 20.4487 0.222421 20.5712 0.325671 20.6745C0.428922 20.7777 0.551499 20.8595 0.686402 20.9154C0.821307 20.9712 0.965896 21 1.11191 21C1.25793 21 1.40252 20.9712 1.53743 20.9154C1.67233 20.8595 1.79491 20.7777 1.89816 20.6745L6.61228 15.9611C6.62829 15.9449 6.64386 15.9282 6.65895 15.9111ZM16.8273 13.605C16.21 14.2322 15.4746 14.731 14.6635 15.0726C13.8524 15.4143 12.9816 15.592 12.1014 15.5956C11.2212 15.5992 10.349 15.4286 9.53514 15.0935C8.72127 14.7585 7.9818 14.2657 7.35941 13.6435C6.73702 13.0214 6.24402 12.2822 5.90884 11.4687C5.57366 10.6551 5.40294 9.78326 5.40652 8.90342C5.4101 8.02358 5.58792 7.15316 5.92972 6.34236C6.27152 5.53157 6.77053 4.79644 7.39797 4.17938C8.65185 2.94624 10.3424 2.25833 12.1014 2.26549C13.8604 2.27265 15.5453 2.9743 16.7891 4.2176C18.0329 5.46091 18.7348 7.14514 18.742 8.90342C18.7491 10.6617 18.0609 12.3516 16.8273 13.605Z" fill="black"/>
</svg>
