<svg width="747" height="194" viewBox="0 0 747 194" fill="none" xmlns="http://www.w3.org/2000/svg">
<path d="M449.7 30.9401C449.7 30.9401 487.35 70.2701 493.43 105.41C493.806 107.527 494.056 109.664 494.18 111.81C496.11 145.64 488.13 50.2001 522.27 28.4201C525.354 26.4199 528.932 25.3125 532.607 25.2207C536.281 25.129 539.91 26.0563 543.09 27.9001C553.21 33.9001 570.57 49.6201 581.35 95.1301C581.35 95.1301 585.26 112.04 581.22 119.88C575.76 130.52 552.86 134.8 550.93 120.42C549.66 110.93 556.8 92.5001 575 56.0001C581.12 43.7201 588.53 32.0701 599 23.2201C608.66 15.1001 621.37 8.00007 635.42 9.48007C635.42 9.48007 662.84 11.7601 653.42 67.9401C653.42 67.9401 643.23 120.94 612.53 190.25" stroke="black" stroke-width="18.55" stroke-miterlimit="10"/>
<path d="M30.78 54.2001C35.583 51.6993 40.9358 50.441 46.35 50.5401C52.8426 50.4548 59.2298 52.1867 64.79 55.5401C70.3927 58.9944 74.9167 63.9479 77.85 69.8401C81.1698 76.4975 82.8206 83.8626 82.66 91.3001C82.8088 98.7813 81.1592 106.189 77.85 112.9C74.9212 118.864 70.4016 123.903 64.79 127.46C59.2657 130.915 52.8651 132.709 46.35 132.63C40.9873 132.729 35.6854 131.481 30.93 129C26.7123 126.813 23.0151 123.744 20.09 120V169.22H0V51.8301H20.09V63.3101C22.9004 59.4872 26.5598 56.3687 30.78 54.2001ZM59.2 78.8801C57.4083 75.5465 54.7251 72.7766 51.45 70.8801C48.2652 69.0767 44.6597 68.1485 41 68.1901C37.4036 68.1979 33.8749 69.1682 30.78 71.0001C27.494 72.9368 24.8028 75.7387 23 79.1001C20.966 82.9427 19.9536 87.2436 20.06 91.5901C19.9548 95.9332 20.9672 100.231 23 104.07C24.7931 107.431 27.4737 110.236 30.75 112.18C33.8844 114.025 37.4576 114.992 41.0946 114.979C44.7315 114.967 48.2981 113.976 51.42 112.11C54.6883 110.126 57.3646 107.301 59.17 103.93C61.2243 100.044 62.2469 95.6949 62.14 91.3001C62.2511 86.9755 61.2381 82.696 59.2 78.8801Z" fill="black"/>
<path d="M91.2 69.9101C94.1261 63.9999 98.6507 59.0284 104.26 55.5601C109.821 52.2077 116.208 50.4759 122.7 50.5601C128.108 50.439 133.461 51.6732 138.27 54.1501C142.462 56.3125 146.115 59.3881 148.96 63.1501V51.8301H169.2V131.34H149V119.71C146.22 123.623 142.54 126.809 138.27 129C133.421 131.514 128.02 132.772 122.56 132.66C116.09 132.727 109.738 130.932 104.26 127.49C98.6467 123.922 94.1273 118.873 91.2 112.9C87.8908 106.189 86.2412 98.7813 86.39 91.3001C86.246 83.8867 87.8962 76.5483 91.2 69.9101ZM146.09 79.0001C144.304 75.6624 141.619 72.8912 138.34 71.0001C135.16 69.1553 131.546 68.189 127.87 68.2001C124.242 68.173 120.672 69.1155 117.53 70.9301C114.29 72.8449 111.637 75.612 109.86 78.9301C107.796 82.7385 106.762 87.0196 106.86 91.3501C106.774 95.7208 107.806 100.041 109.86 103.9C111.646 107.306 114.325 110.161 117.61 112.16C120.704 114.031 124.254 115.013 127.87 115C131.546 115.011 135.16 114.045 138.34 112.2C141.621 110.312 144.307 107.54 146.09 104.2C148.12 100.314 149.122 95.9729 149 91.5901C149.118 87.2141 148.116 82.8805 146.09 79.0001Z" fill="black"/>
<path d="M206.51 68.3402V106.8C206.51 109.48 207.15 111.41 208.45 112.61C209.75 113.81 211.91 114.4 214.98 114.4H224.31V131.34H211.68C194.74 131.34 186.27 123.11 186.27 106.65V68.3402H176.8V51.8302H186.27V32.1702H206.51V51.8302H224.31V68.3402H206.51Z" fill="black"/>
<path d="M232.91 70.0002C236.101 63.9949 240.927 59.0161 246.83 55.6402C253.055 52.174 260.086 50.4178 267.21 50.5502C277.063 50.5502 285.22 53.0135 291.68 57.9402C298.14 62.8668 302.473 69.7802 304.68 78.6802H283C281.986 75.4226 279.948 72.5787 277.19 70.5702C274.217 68.5359 270.671 67.5058 267.07 67.6302C261.33 67.6302 256.787 69.7102 253.44 73.8702C250.093 78.0302 248.427 83.9402 248.44 91.6002C248.44 99.1468 250.107 105.004 253.44 109.17C256.773 113.337 261.317 115.42 267.07 115.42C275.197 115.42 280.507 111.784 283 104.51H304.67C302.77 112.625 298.164 119.852 291.61 125C285.103 130.074 276.97 132.61 267.21 132.61C260.085 132.744 253.052 130.984 246.83 127.51C240.924 124.142 236.097 119.166 232.91 113.16C229.577 106.994 227.91 99.7968 227.91 91.5702C227.91 83.3435 229.577 76.1535 232.91 70.0002Z" fill="black"/>
<path d="M374.56 54.6301C379.307 57.3154 383.139 61.3633 385.56 66.2501C388.193 71.3701 389.527 77.5201 389.56 84.7001V131.34H369.39V87.4201C369.39 81.1068 367.81 76.2535 364.65 72.8601C361.49 69.4668 357.187 67.7668 351.74 67.7601C346.187 67.7601 341.81 69.4601 338.61 72.8601C335.41 76.2601 333.807 81.1135 333.8 87.4201V131.34H313.71V25.1401H333.8V61.7301C336.498 58.1954 340.054 55.4075 344.13 53.6301C348.641 51.6064 353.536 50.583 358.48 50.6301C364.097 50.543 369.639 51.9217 374.56 54.6301Z" fill="black"/>
<path d="M746.11 103.21H688C688.48 108.95 690.48 113.447 694 116.7C697.555 119.959 702.238 121.709 707.06 121.58C714.52 121.58 719.83 118.373 722.99 111.96H744.66C742.431 119.522 737.792 126.148 731.45 130.83C724.95 135.757 716.95 138.22 707.45 138.22C700.258 138.34 693.159 136.585 686.85 133.13C680.828 129.79 675.897 124.783 672.65 118.71C669.151 112.082 667.396 104.673 667.55 97.1801C667.377 89.6522 669.097 82.2013 672.55 75.5101C675.758 69.4429 680.678 64.4527 686.7 61.1601C693.051 57.8816 700.089 56.1576 707.236 56.1297C714.383 56.1019 721.434 57.7711 727.81 61.0001C733.701 64.1647 738.541 68.9776 741.74 74.8501C745.143 81.1717 746.865 88.2617 746.74 95.4401C746.742 98.0429 746.532 100.642 746.11 103.21ZM725.88 89.7201C725.922 87.3662 725.442 85.0322 724.474 82.8863C723.505 80.7403 722.073 78.8359 720.28 77.3101C716.554 74.1671 711.802 72.5049 706.93 72.6401C702.326 72.5072 697.842 74.1221 694.38 77.1601C690.98 80.1801 688.897 84.3668 688.13 89.7201H725.88Z" fill="black"/>
<path d="M478.44 131.34H397.67V151.49H478.44V131.34Z" fill="black"/>
</svg>
