<svg width="500" height="130" viewBox="0 0 500 130" fill="none" xmlns="http://www.w3.org/2000/svg">
<g clip-path="url(#clip0_45_4545)">
<path d="M301.129 20.7183C301.129 20.7183 326.34 47.0545 330.412 70.5851C330.663 72.0025 330.831 73.4335 330.914 74.8706C332.206 97.5239 326.863 33.6152 349.723 19.0309C351.789 17.6915 354.184 16.95 356.645 16.8885C359.106 16.827 361.536 17.448 363.665 18.6826C370.442 22.7004 382.066 33.2268 389.285 63.7013C389.285 63.7013 391.903 75.0246 389.198 80.2745C385.542 87.3993 370.207 90.2652 368.915 80.6361C368.064 74.2814 372.846 61.9402 385.033 37.499C389.131 29.2761 394.093 21.475 401.104 15.5488C407.572 10.1115 416.083 5.35717 425.491 6.34821C425.491 6.34821 443.852 7.87495 437.544 45.4943C437.544 45.4943 430.721 80.9843 410.164 127.396" stroke="white" stroke-width="12.4215" stroke-miterlimit="10"/>
<path d="M20.611 36.2936C23.8272 34.619 27.4115 33.7764 31.037 33.8427C35.3846 33.7856 39.6615 34.9453 43.3848 37.1909C47.1365 39.5039 50.1659 42.8209 52.1301 46.7664C54.3531 51.2244 55.4585 56.1562 55.351 61.1365C55.4506 66.1461 54.346 71.1064 52.1301 75.6004C50.1689 79.5939 47.1424 82.9679 43.3848 85.3501C39.6856 87.6633 35.3996 88.865 31.037 88.812C27.446 88.8783 23.8957 88.0425 20.7114 86.3813C17.8871 84.917 15.4114 82.8615 13.4527 80.3547V113.313H0V34.7066H13.4527V42.3938C15.3346 39.8339 17.785 37.7457 20.611 36.2936ZM39.6416 52.8198C38.4419 50.5876 36.6451 48.7328 34.452 47.4629C32.3194 46.2552 29.9051 45.6338 27.4545 45.6616C25.0463 45.6668 22.6833 46.3165 20.611 47.5432C18.4106 48.8401 16.6085 50.7163 15.4013 52.9671C14.0393 55.5403 13.3614 58.4202 13.4326 61.3307C13.3622 64.239 14.0401 67.1166 15.4013 69.6876C16.602 71.9383 18.397 73.8166 20.5909 75.1182C22.6898 76.3535 25.0825 77.001 27.5178 76.9927C29.9532 76.9845 32.3415 76.3208 34.432 75.0714C36.6205 73.7424 38.4126 71.8509 39.6215 69.5939C40.9971 66.9913 41.6819 64.0794 41.6103 61.1365C41.6847 58.2407 41.0064 55.375 39.6416 52.8198Z" fill="white"/>
<path d="M61.0695 46.8135C63.0289 42.8558 66.0586 39.5268 69.8147 37.2044C73.5383 34.9595 77.815 33.7999 82.1626 33.8563C85.784 33.7752 89.3682 34.6016 92.5886 36.2602C95.3955 37.7082 97.8417 39.7677 99.7468 42.2868V34.7067H113.3V87.9483H99.7736V80.1606C97.9124 82.7807 95.448 84.9143 92.5886 86.3814C89.3419 88.0645 85.7251 88.9071 82.0688 88.8322C77.7367 88.877 73.483 87.6753 69.8147 85.3703C66.0559 82.9808 63.0297 79.6 61.0695 75.6005C58.8536 71.1065 57.749 66.1463 57.8486 61.1367C57.7521 56.1725 58.8571 51.2585 61.0695 46.8135ZM97.825 52.9003C96.629 50.6653 94.8314 48.8096 92.6355 47.5433C90.506 46.308 88.0864 45.6609 85.6245 45.6684C83.1949 45.6502 80.8046 46.2813 78.7006 47.4965C76.5308 48.7786 74.7543 50.6315 73.5646 52.8534C72.1827 55.4036 71.4903 58.2703 71.5558 61.1701C71.498 64.0968 72.1895 66.9897 73.5646 69.5739C74.7606 71.8543 76.5545 73.7663 78.7542 75.105C80.8262 76.3577 83.2032 77.0157 85.6245 77.0067C88.0864 77.0142 90.506 76.3671 92.6355 75.1318C94.8327 73.8672 96.6308 72.0111 97.825 69.7748C99.1845 67.1725 99.8553 64.2657 99.7736 61.3309C99.8527 58.4006 99.182 55.4987 97.825 52.9003Z" fill="white"/>
<path d="M138.284 45.762V71.5156C138.284 73.3102 138.712 74.6026 139.583 75.4061C140.453 76.2097 141.9 76.6048 143.955 76.6048H150.203V87.9482H141.746C130.402 87.9482 124.73 82.4372 124.73 71.4152V45.762H118.389V34.7065H124.73V21.5417H138.284V34.7065H150.203V45.762H138.284Z" fill="white"/>
<path d="M155.962 46.8738C158.098 42.8525 161.33 39.5186 165.283 37.258C169.451 34.937 174.16 33.761 178.93 33.8496C185.528 33.8496 190.99 35.4991 195.315 38.7981C199.641 42.0971 202.543 46.7265 204.02 52.6861H189.503C188.824 50.5047 187.459 48.6004 185.612 47.2555C183.621 45.8933 181.247 45.2035 178.836 45.2868C174.992 45.2868 171.95 46.6796 169.709 49.4652C167.468 52.2508 166.352 56.2083 166.361 61.3376C166.361 66.391 167.477 70.3128 169.709 73.1029C171.941 75.893 174.983 77.288 178.836 77.288C184.278 77.288 187.833 74.8528 189.503 69.9824H204.014C202.742 75.4165 199.657 80.2555 195.268 83.703C190.911 87.1002 185.465 88.7988 178.93 88.7988C174.159 88.8886 169.449 87.7101 165.283 85.3837C161.328 83.1285 158.096 79.7961 155.962 75.7747C153.73 71.6453 152.614 66.8263 152.614 61.3175C152.614 55.8088 153.73 50.9942 155.962 46.8738Z" fill="white"/>
<path d="M250.814 36.5816C253.992 38.3798 256.558 41.0903 258.179 44.3626C259.943 47.7911 260.836 51.9093 260.858 56.7172V87.9483H247.352V58.5385C247.352 54.311 246.294 51.0611 244.178 48.7888C242.062 46.5166 239.18 45.3782 235.533 45.3738C231.814 45.3738 228.884 46.5121 226.741 48.7888C224.598 51.0655 223.524 54.3154 223.52 58.5385V87.9483H210.067V16.8345H223.52V41.3359C225.327 38.969 227.707 37.1022 230.437 35.912C233.458 34.5569 236.736 33.8716 240.046 33.9031C243.807 33.8448 247.518 34.768 250.814 36.5816Z" fill="white"/>
<path d="M499.611 69.1117H460.7C461.021 72.9554 462.36 75.9664 464.717 78.1449C467.098 80.3274 470.234 81.4992 473.463 81.4127C478.458 81.4127 482.014 79.2654 484.13 74.9709H498.641C497.148 80.0343 494.042 84.4713 489.795 87.6067C485.442 90.9057 480.085 92.5552 473.724 92.5552C468.908 92.6352 464.154 91.4606 459.93 89.1468C455.897 86.9103 452.595 83.5575 450.421 79.4909C448.078 75.0527 446.903 70.0914 447.006 65.0739C446.89 60.0331 448.042 55.0438 450.354 50.5632C452.502 46.5005 455.797 43.1589 459.829 40.9541C464.082 38.7588 468.795 37.6043 473.58 37.5857C478.366 37.5671 483.088 38.6848 487.357 40.847C491.302 42.9661 494.543 46.1889 496.685 50.1212C498.964 54.3543 500.117 59.102 500.033 63.9088C500.035 65.6517 499.894 67.3918 499.611 69.1117ZM486.065 60.0785C486.093 58.5023 485.772 56.9394 485.123 55.5024C484.475 54.0655 483.516 52.7902 482.315 51.7685C479.82 49.6639 476.638 48.5508 473.376 48.6414C470.293 48.5524 467.29 49.6337 464.972 51.6681C462.695 53.6903 461.3 56.4938 460.787 60.0785H486.065Z" fill="white"/>
<path d="M320.374 87.9482H266.289V101.441H320.374V87.9482Z" fill="white"/>
</g>
<defs>
<clipPath id="clip0_45_4545">
<rect width="500" height="129.913" fill="white"/>
</clipPath>
</defs>
</svg>
